<?xml version="1.0" standalone="no"?>
<!DOCTYPE svg PUBLIC "-//W3C//DTD SVG 20010904//EN"
 "http://www.w3.org/TR/2001/REC-SVG-20010904/DTD/svg10.dtd">
<svg version="1.0" xmlns="http://www.w3.org/2000/svg"
 width="1080.000000pt" height="1080.000000pt" viewBox="0 0 1080.000000 1080.000000"
 preserveAspectRatio="xMidYMid meet">
<metadata>
Created by potrace 1.14, written by Peter Selinger 2001-2017
</metadata>
<g transform="translate(0.000000,1080.000000) scale(0.100000,-0.100000)"
fill="#000000" stroke="none">
<path d="M5050 10789 c-1053 -70 -2090 -457 -2920 -1092 -372 -285 -742 -655
-1027 -1027 -582 -762 -956 -1694 -1068 -2660 -147 -1277 177 -2587 903 -3650
319 -468 738 -910 1192 -1257 762 -582 1694 -956 2660 -1068 1277 -147 2587
177 3650 903 468 319 910 738 1257 1192 582 762 956 1694 1068 2660 147 1277
-177 2587 -903 3650 -319 468 -738 910 -1192 1257 -426 325 -944 606 -1456
788 -686 245 -1446 351 -2164 304z m870 -424 c1155 -124 2194 -620 3010 -1435
818 -819 1309 -1851 1437 -3020 13 -126 18 -246 18 -510 0 -264 -5 -384 -18
-510 -128 -1169 -619 -2201 -1437 -3020 -819 -818 -1851 -1309 -3020 -1437
-233 -25 -787 -25 -1020 0 -1169 128 -2201 619 -3020 1437 -818 819 -1309
1851 -1437 3020 -25 233 -25 787 0 1020 128 1169 619 2201 1437 3020 870 869
1975 1367 3230 1454 136 9 673 -3 820 -19z"/>
<path d="M5160 10304 c-25 -2 -103 -9 -175 -14 -250 -21 -563 -75 -815 -141
-1825 -479 -3201 -1933 -3579 -3779 -70 -344 -95 -597 -95 -970 0 -373 25
-626 95 -970 398 -1941 1898 -3441 3839 -3839 344 -70 597 -95 970 -95 373 0
626 25 970 95 1941 398 3441 1898 3839 3839 70 344 95 597 95 970 0 373 -25
626 -95 970 -378 1846 -1754 3300 -3579 3779 -236 62 -539 115 -800 141 -109
11 -591 21 -670 14z m2964 -2010 c9 -8 16 -23 16 -31 0 -9 -81 -157 -180 -329
l-180 -313 39 -183 c72 -333 154 -881 176 -1173 4 -49 8 -97 11 -105 2 -8 0
-21 -5 -29 -7 -11 -37 4 -137 66 -274 170 -673 388 -685 376 -4 -5 -131 -222
-282 -483 -150 -261 -409 -710 -575 -998 l-301 -522 15 -143 c38 -367 104
-794 168 -1082 18 -82 32 -152 30 -153 -1 -2 -53 18 -115 44 -188 81 -354 182
-527 322 -57 46 -105 82 -107 80 -1 -1 -145 -250 -319 -553 -284 -492 -342
-586 -365 -585 -18 1 -43 32 -43 52 0 13 42 95 92 183 51 88 132 228 180 311
l88 151 -187 0 c-209 -1 -316 14 -466 64 -425 142 -681 489 -751 1019 -21 165
-15 496 15 688 104 680 462 1368 1016 1950 174 183 431 397 630 524 374 239
813 355 1089 289 140 -34 213 -78 341 -206 168 -168 265 -317 316 -485 18 -59
23 -100 23 -192 1 -65 3 -118 6 -118 3 0 203 345 445 767 242 421 448 776 458
789 21 28 49 31 71 8z m-3831 -684 c104 -23 212 -72 283 -129 85 -67 174 -214
174 -287 0 -34 -26 -81 -53 -95 -15 -9 -91 -12 -252 -12 -135 1 -288 -5 -370
-13 -150 -15 -580 -80 -596 -89 -5 -4 -9 -30 -9 -58 -1 -105 -60 -307 -142
-487 -39 -84 -95 -186 -420 -765 -400 -712 -504 -908 -763 -1430 -183 -369
-298 -616 -426 -910 -48 -112 -83 -155 -126 -155 -86 0 -185 131 -224 298 -19
78 -14 245 10 361 79 379 583 1454 1114 2381 101 176 277 469 345 574 l63 99
-48 -6 c-226 -30 -426 -32 -569 -6 -163 28 -318 103 -416 200 -130 128 -178
304 -95 348 15 8 112 13 292 15 321 4 522 25 1250 126 154 21 330 43 390 49
61 6 124 13 140 15 77 11 363 -4 448 -24z m3806 -79 c621 -307 1039 -795 1240
-1447 45 -146 45 -146 -47 -234 -102 -99 -334 -300 -502 -435 -209 -169 -600
-455 -621 -455 -4 0 -7 186 -7 413 0 544 -20 856 -87 1357 -32 236 -87 556
-135 777 -11 51 -20 95 -20 97 0 9 77 -22 179 -73z m1325 -1817 c25 -213 27
-265 16 -424 -36 -531 -192 -951 -500 -1348 -135 -175 -228 -262 -278 -262
-10 0 -115 32 -232 71 -314 104 -607 217 -890 342 -258 115 -310 140 -305 148
3 4 63 38 133 75 654 346 1389 866 1961 1387 41 37 77 67 81 67 4 0 10 -25 14
-56z m-3101 -1132 c660 -401 1351 -720 2094 -966 79 -26 145 -51 148 -56 8
-13 -301 -211 -440 -281 -217 -109 -459 -185 -717 -225 -142 -22 -511 -26
-638 -6 -154 24 -339 72 -366 95 -27 24 -37 71 -160 781 -66 383 -110 756 -89
756 4 0 80 -44 168 -98z"/>
<path d="M6365 7291 c-209 -57 -476 -207 -740 -417 -137 -109 -453 -425 -563
-562 -397 -499 -639 -1030 -721 -1587 -21 -145 -26 -467 -10 -590 47 -339 178
-532 399 -586 84 -20 221 -16 315 10 100 27 238 94 331 159 62 44 77 61 124
143 29 52 83 146 120 209 37 63 112 194 167 290 56 96 243 420 415 720 173
300 320 555 327 568 11 20 7 27 -46 76 -114 106 -162 224 -162 401 -1 171 19
244 189 678 34 88 71 195 82 239 55 219 -22 305 -227 249z"/>
</g>
</svg>
