<svg xmlns="http://www.w3.org/2000/svg" viewBox="0 0 661 71.42"><defs><style>.cls-1{fill:none;}.cls-2,.cls-4{font-size:64px;}.cls-2,.cls-4,.cls-5{fill:#444;}.cls-2{font-family:Montserrat-ExtraLight, Montserrat;font-weight:200;}.cls-3{letter-spacing:-0.01em;}.cls-4{font-family:Montserrat-BoldItalic, Montserrat;font-weight:700;font-style:italic;}</style></defs><title>Inline Gray</title><g id="Layer_2" data-name="Layer 2"><g id="Inline_Gray" data-name="Inline Gray"><rect id="Boundary" class="cls-1" y="0.97" width="661" height="60"/><g id="Text"><text class="cls-2" transform="translate(292.26 54.59)"><tspan class="cls-3">T</tspan><tspan x="34.88" y="0">OGRA</tspan><tspan class="cls-3" x="228.48" y="0">P</tspan><tspan x="273.41" y="0">HY</tspan></text><text class="cls-4" transform="translate(80.91 54.4)">CHRIS</text><path class="cls-5" d="M76.57,13.14H37.66C34.74,9.39,31.68,9,27.37,9h-.14C21.4,9,17,13,15.56,14.53h-5A5.57,5.57,0,0,0,5,20.09V45.24a5.46,5.46,0,0,0,5.56,5.42H15.7c5.42,4,7.37,4.17,17.09,4.17,5.14,0,11-1.39,12.65-1.67a6.33,6.33,0,0,0,7.64-4,6.6,6.6,0,0,0,0-4,6.1,6.1,0,0,0,5.7-4.16l.14-.14a6.24,6.24,0,0,0-.28-4.73,6,6,0,0,0-.41-.69,6.41,6.41,0,0,0,5.13-6.26,6,6,0,0,0-1.11-3.47H76.57a6.26,6.26,0,0,0,0-12.51ZM17,48.16a2,2,0,0,0-.83-.28H10.56a2.76,2.76,0,0,1-2.78-2.64V20.09a2.79,2.79,0,0,1,2.78-2.78h5.56a1.28,1.28,0,0,0,1.11-.55s4.17-4.87,9.86-5h.14c4.31,0,6.26.28,8.48,3.62l.14.14,1.09,1.28c3.35,4.39,7,9.22,8.36,11.22,1.39,2.23,1.81,4,1,5.14a3.19,3.19,0,0,1-2.86.84,2.54,2.54,0,0,1-.47-.14,38.25,38.25,0,0,1-7.79-5.28,1.45,1.45,0,0,0-.46-.24c-3.79-3.18-7.31-6.8-8-8.52a1.37,1.37,0,0,0-2.5,1.12c.87,2,4.24,5.62,8,8.86a8.1,8.1,0,0,0-.76,1.42l-.14.28A6.14,6.14,0,0,0,31.45,36a6.22,6.22,0,0,0-.88,12l9.51,3.3a43.49,43.49,0,0,1-7.29.73C23.07,52.05,22,51.91,17,48.16Zm16.82-9.31L44.6,42.6l3.71,1.29A3.61,3.61,0,0,1,49.87,45a3.5,3.5,0,0,1,.29.49,3.47,3.47,0,0,1,.14,2.64,3.35,3.35,0,0,1-4.45,2.09c-.13,0-.27,0-.41,0l-13.9-4.82A3.42,3.42,0,0,1,31.12,39a2.81,2.81,0,0,1,1.53-.42A2.64,2.64,0,0,1,33.77,38.85Zm20.28-3.19a3.26,3.26,0,0,1,2,1.66,3.09,3.09,0,0,1,.14,2.5L56,40.1a3.35,3.35,0,0,1-1.09,1.58,3.49,3.49,0,0,1-2.94.37l-2.78-1a1.59,1.59,0,0,0-.74-.06l-3-1-9.58-3.33a3.41,3.41,0,0,1-2.08-4.31L33.9,32a1,1,0,0,1,.28-.55c.12.08.23.17.34.26a35.29,35.29,0,0,0,6.76,4.43l.11,0,.3.12a5.5,5.5,0,0,0,2.13.41h.23a6,6,0,0,0,2.75-.67A7.61,7.61,0,0,0,49.61,34Zm3.06-3.2h-.55L53.36,32a1.73,1.73,0,0,0-.64.12l-3.11-1.09L49.36,31a10.29,10.29,0,0,0-1.84-4.51c-.15-.25-.34-.55-.56-.87l10.43-.24a3.29,3.29,0,0,1,2.22,1,4,4,0,0,1,1,2.51A3.56,3.56,0,0,1,57.11,32.46Zm19.46-9.59H45.3l-.26,0c-1.54-2.11-3.46-4.64-5.25-7H76.57a3.48,3.48,0,0,1,0,7Z"/></g></g></g></svg>