<svg xmlns="http://www.w3.org/2000/svg" viewBox="0 0 487.5 487.5"><defs><style>.cls-1{fill:none;}</style></defs><title>Logo Down</title><g id="Layer_2" data-name="Layer 2"><g id="Logo_Down" data-name="Logo Down"><rect class="cls-1" width="487.5" height="487.5" transform="translate(487.5 0) rotate(90)"/><path d="M171.43,468.74a36,36,0,0,0,36.16-36.16V349.82a35.23,35.23,0,0,0,20.09,6.42,37,37,0,0,0,36.15-29.69,33.23,33.23,0,0,0,4,2.37,35.68,35.68,0,0,0,27.32,1.61l.8-.8a35.23,35.23,0,0,0,24.11-33,38.45,38.45,0,0,0,23.3,0,36.63,36.63,0,0,0,23.3-44.19c1.61-9.64,9.64-43.39,9.64-73.12,0-56.25-.8-67.5-24.1-98.84V50.9c0-17.68-13.66-32.14-31.34-32.14H175.45A32.23,32.23,0,0,0,143.31,50.9V79.83c-8.84,8-32.14,33.75-32.14,67.5v.8c0,24.91,2.41,42.59,24.1,59.46v225A36,36,0,0,0,171.43,468.74ZM360.26,179.47c0,14.08-2,29.39-4.26,42.16l-19-55c-6.43-18.48-27.32-28.93-45.8-22.5a36.85,36.85,0,0,0-23.72,27.61,35.27,35.27,0,0,0-26.1-1.09l-1.61.8a46.43,46.43,0,0,0-8.2,4.4c-18.75-21.62-39.5-41.14-51.26-46.18-4-1.61-8.84,0-10.44,4s0,8.84,4,10.45c9.95,4.07,30.85,24.44,49.23,46.33a9.11,9.11,0,0,0,1.4,2.69c15.26,18.48,26.51,35.35,30.53,45a15.92,15.92,0,0,1,.84,2.75c1,6.38-.8,13.16-4.86,16.54-6.43,4.82-16.87,2.41-29.73-5.63-11.58-8-39.48-29-64.88-48.35l-7.44-6.29-.8-.8c-19.28-12.86-20.89-24.11-20.89-49v-.8c.8-32.94,28.93-57.05,28.93-57.05A7.31,7.31,0,0,0,159.38,83V50.9a16.12,16.12,0,0,1,16.07-16.07H320.89c8,0,15.27,7.23,15.27,16.07V83a11.49,11.49,0,0,0,1.6,4.83C359.46,116.79,360.26,123.22,360.26,179.47Zm-77.94-.81a16.21,16.21,0,0,1,2.41-8.84c2.41-4.82,6.43-8.83,11.25-10.44a20.38,20.38,0,0,1,25.71,12.86l27.83,80.39a19.19,19.19,0,0,1,.3,2.37c4,11.25-1.61,22.5-12.06,25.71a20.14,20.14,0,0,1-15.26-.8,23.23,23.23,0,0,1-2.85-1.69,20.72,20.72,0,0,1-6.57-9l-7.46-21.45-21.69-62.67A15,15,0,0,1,282.32,178.66Zm-26.52,98A44.21,44.21,0,0,0,268,260.48a34.42,34.42,0,0,0,3.87-15.93c0-.45,0-.89,0-1.33a31.75,31.75,0,0,0-2.39-12.33c-.21-.55-.45-1.12-.69-1.69l-.3-.67c-4.63-10.5-14.2-24.67-25.62-39.06l-1.51-2a6.09,6.09,0,0,1,3.21-1.6l1.61-.81c10.45-3.21,20.89,1.61,24.91,12.06l19.28,55.42,6,17.45a8.85,8.85,0,0,0,.39,4.26l5.63,16.08a20.1,20.1,0,0,1-2.13,17,19.19,19.19,0,0,1-9.12,6.3l-1.61.8c-4.82,1.61-10.45,1.61-14.46-.8a19,19,0,0,1-9.64-11.25Zm-29.73,63.48c-5.62,0-10.44-2.41-14.46-5.62A19,19,0,0,1,206,321.69l1.39-60.3c1.87,1.25,3.56,2.35,5,3.25,10.26,6.84,19,9.82,26.09,10.64a8.83,8.83,0,0,0,.43,1.42l6.31,18a10.18,10.18,0,0,0-.69,3.67L247,316.87v3.22C247,331.33,237.32,340.17,226.07,340.17Zm-54.64,112.5a19.9,19.9,0,0,1-20.09-20.09V219.93c13.46,10.35,28.08,21.48,40.29,30.38a10,10,0,0,0-.11,1.48V432.58A19.9,19.9,0,0,1,171.43,452.67Z"/></g></g></svg>