<svg xmlns="http://www.w3.org/2000/svg" viewBox="0 0 487.5 487.5"><defs><style>.cls-1{fill:none;}</style></defs><title>Logo Right</title><g id="Layer_2" data-name="Layer 2"><g id="Logo_Right" data-name="Logo Right"><rect class="cls-1" width="487.5" height="487.5"/><path d="M432.58,135.27h-225c-16.87-21.69-34.55-24.1-59.46-24.1h-.8c-33.75,0-59.46,23.3-67.5,32.14H50.9a32.23,32.23,0,0,0-32.14,32.14V320.89c0,17.68,14.46,31.34,32.14,31.34H80.63c31.34,23.3,42.59,24.1,98.84,24.1,29.73,0,63.48-8,73.12-9.64a36.63,36.63,0,0,0,44.19-23.3,38.45,38.45,0,0,0,0-23.3,35.23,35.23,0,0,0,33-24.11l.8-.8a35.68,35.68,0,0,0-1.61-27.32,33.23,33.23,0,0,0-2.37-4,37,37,0,0,0,29.69-36.15,35.23,35.23,0,0,0-6.42-20.09h82.76a36.16,36.16,0,1,0,0-72.32ZM87.87,337.76a11.49,11.49,0,0,0-4.83-1.6H50.9c-8.84,0-16.07-7.24-16.07-15.27V175.45A16.12,16.12,0,0,1,50.9,159.38H83a7.31,7.31,0,0,0,6.43-3.21s24.11-28.13,57.05-28.93h.8c24.91,0,36.16,1.61,49,20.89l.8.8,6.29,7.44c19.37,25.4,40.39,53.3,48.35,64.88,8,12.86,10.45,23.3,5.63,29.73-3.38,4.06-10.16,5.83-16.54,4.86a15.92,15.92,0,0,1-2.75-.84c-9.64-4-26.51-15.27-45-30.53a9.11,9.11,0,0,0-2.69-1.4c-21.89-18.38-42.26-39.28-46.33-49.23-1.61-4-6.43-5.62-10.45-4s-5.62,6.42-4,10.44c5,11.76,24.56,32.51,46.18,51.26a46.43,46.43,0,0,0-4.4,8.2l-.8,1.61a35.27,35.27,0,0,0,1.09,26.1,36.85,36.85,0,0,0-27.61,23.72c-6.43,18.48,4,39.37,22.5,45.8l55,19c-12.77,2.26-28.08,4.26-42.16,4.26C123.22,360.26,116.79,359.46,87.87,337.76Zm97.22-53.83,62.67,21.69,21.45,7.46a20.72,20.72,0,0,1,9,6.57,23.23,23.23,0,0,1,1.69,2.85,20.14,20.14,0,0,1,.8,15.26c-3.21,10.45-14.46,16.07-25.71,12.06a19.19,19.19,0,0,1-2.37-.3l-80.39-27.83A20.38,20.38,0,0,1,159.38,296c1.61-4.82,5.62-8.84,10.44-11.25a16.21,16.21,0,0,1,8.84-2.41A15,15,0,0,1,185.09,283.93Zm117.32-18.48a19,19,0,0,1,11.25,9.64c2.41,4,2.41,9.64.8,14.46l-.8,1.61a19.19,19.19,0,0,1-6.3,9.12,20.1,20.1,0,0,1-17,2.13l-16.08-5.63a8.85,8.85,0,0,0-4.26-.39l-17.45-6-55.42-19.28c-10.45-4-15.27-14.46-12.06-24.91l.81-1.61a6.09,6.09,0,0,1,1.6-3.21l2,1.51c14.39,11.42,28.56,21,39.06,25.62l.67.3c.57.24,1.14.48,1.69.69a31.75,31.75,0,0,0,12.33,2.39l1.33,0A34.42,34.42,0,0,0,260.48,268a44.21,44.21,0,0,0,16.21-12.2ZM320.09,247h-3.22l-18.48-2.41a10.18,10.18,0,0,0-3.67.69l-18-6.31a8.83,8.83,0,0,0-1.42-.43c-.82-7.14-3.8-15.83-10.64-26.09-.9-1.48-2-3.17-3.25-5l60.3-1.39a19,19,0,0,1,12.86,5.63c3.21,4,5.62,8.84,5.62,14.46C340.17,237.32,331.33,247,320.09,247Zm112.49-55.44H251.79a10,10,0,0,0-1.48.11c-8.9-12.21-20-26.83-30.38-40.29H432.58a20.09,20.09,0,1,1,0,40.18Z"/></g></g></svg>