<svg xmlns="http://www.w3.org/2000/svg" viewBox="0 0 67 768"><defs><style>.cls-1{fill:none;}.cls-2,.cls-3{font-size:64px;}.cls-2,.cls-3,.cls-4{fill:#444;}.cls-2{font-family:Montserrat-ExtraLight, Montserrat;font-weight:200;}.cls-3{font-family:Montserrat-BoldItalic, Montserrat;font-weight:700;font-style:italic;}</style></defs><title>Vertical Gray</title><g id="Layer_2" data-name="Layer 2"><g id="Vertical_Gray" data-name="Vertical Gray"><rect class="cls-1" width="67" height="768"/><text class="cls-2" transform="translate(16.5 393.62)">T<tspan x="-9.02" y="50">O</tspan><tspan x="-7.01" y="100">G</tspan><tspan x="-5.22" y="150">R</tspan><tspan x="-4.51" y="200">A</tspan><tspan x="-5.02" y="250">P</tspan><tspan x="-8.32" y="300">H</tspan><tspan x="-1.95" y="350">Y</tspan></text><text class="cls-3" transform="translate(10.45 139.43)">C<tspan x="-2.4" y="50">H</tspan><tspan x="-0.06" y="100">R</tspan><tspan x="12.96" y="150">I</tspan><tspan x="3.04" y="200">S</tspan></text><path class="cls-4" d="M24.4,91.84a6.23,6.23,0,0,0,6.26-6.25V71.27a6,6,0,0,0,3.47,1.11,6.4,6.4,0,0,0,6.25-5.13,7.1,7.1,0,0,0,.7.41,6.21,6.21,0,0,0,4.72.28l.14-.14a6.11,6.11,0,0,0,4.17-5.7,6.6,6.6,0,0,0,4,0,6.33,6.33,0,0,0,4-7.64c.28-1.67,1.67-7.51,1.67-12.65,0-9.73-.14-11.67-4.17-17.09V19.58A5.46,5.46,0,0,0,50.25,14H25.1a5.57,5.57,0,0,0-5.56,5.56v5C18,26,14,30.42,14,36.25v.14c0,4.31.42,7.37,4.17,10.29V85.59A6.23,6.23,0,0,0,24.4,91.84Zm32.66-50a43.47,43.47,0,0,1-.74,7.29L53,39.59a6.22,6.22,0,0,0-12,.88,6.17,6.17,0,0,0-4.52-.19l-.28.14a8.38,8.38,0,0,0-1.41.76c-3.25-3.74-6.84-7.11-8.87-8a1.37,1.37,0,0,0-1.11,2.5c1.72.7,5.33,4.22,8.51,8a1.45,1.45,0,0,0,.24.46A38.41,38.41,0,0,1,38.86,52a2.54,2.54,0,0,1,.14.47,3.19,3.19,0,0,1-.84,2.86c-1.11.83-2.92.42-5.14-1-2-1.38-6.83-5-11.22-8.36l-1.29-1.09-.14-.14c-3.33-2.22-3.61-4.17-3.61-8.48v-.14c.14-5.69,5-9.86,5-9.86a1.27,1.27,0,0,0,.56-1.11V19.58A2.79,2.79,0,0,1,25.1,16.8H50.25a2.76,2.76,0,0,1,2.64,2.78v5.56a2,2,0,0,0,.28.83C56.92,31,57.06,32.08,57.06,41.81Zm-13.48-.14A2.81,2.81,0,0,1,44,40.14a3.42,3.42,0,0,1,6.39.42l4.81,13.9a3.05,3.05,0,0,1,0,.41,3.35,3.35,0,0,1-2.08,4.45,3.46,3.46,0,0,1-2.64-.14,3,3,0,0,1-1.63-1.85l-1.29-3.71L43.86,42.78A2.55,2.55,0,0,1,43.58,41.67ZM39,58.63a7.69,7.69,0,0,0,2.11-2.81,5.91,5.91,0,0,0,.67-2.75v-.23a5.5,5.5,0,0,0-.41-2.13l-.12-.3a.54.54,0,0,1-.05-.11,35.41,35.41,0,0,0-4.44-6.76l-.26-.34a1.06,1.06,0,0,1,.56-.28l.28-.14a3.41,3.41,0,0,1,4.3,2.09L45,54.45l1,3a1.6,1.6,0,0,0,.07.74l1,2.78a3.45,3.45,0,0,1-.36,2.94A3.35,3.35,0,0,1,45.11,65l-.28.14a3.09,3.09,0,0,1-2.5-.14,3.31,3.31,0,0,1-1.67-1.95Zm-5.14,11a4,4,0,0,1-2.5-1,3.29,3.29,0,0,1-1-2.22L30.62,56c.32.22.61.41.87.56A10.25,10.25,0,0,0,36,58.38a1.44,1.44,0,0,0,.08.25l1.09,3.11a1.73,1.73,0,0,0-.12.64l.42,3.19v.56A3.56,3.56,0,0,1,33.85,69.6ZM24.4,89.06a3.44,3.44,0,0,1-3.47-3.47V48.81c2.33,1.79,4.85,3.71,7,5.25a1.14,1.14,0,0,0,0,.26V85.59A3.44,3.44,0,0,1,24.4,89.06Z"/></g></g></svg>