<?xml version="1.0" standalone="no"?>
<!DOCTYPE svg PUBLIC "-//W3C//DTD SVG 20010904//EN"
 "http://www.w3.org/TR/2001/REC-SVG-20010904/DTD/svg10.dtd">
<svg version="1.0" xmlns="http://www.w3.org/2000/svg"
 width="530.000000pt" height="530.000000pt" viewBox="0 0 530.000000 530.000000"
 preserveAspectRatio="xMidYMid meet">
<metadata>
Created by potrace 1.11, written by Peter Selinger 2001-2013
</metadata>
<g transform="translate(0.000000,530.000000) scale(0.100000,-0.100000)"
fill="#000000" stroke="none">
<path d="M4272 4568 c-12 -16 -152 -257 -152 -263 0 -2 -13 -24 -30 -48 -16
-25 -30 -47 -30 -50 0 -3 -19 -38 -43 -79 -24 -40 -55 -93 -69 -118 -90 -160
-251 -437 -260 -445 -6 -5 -4 1 3 15 22 40 17 203 -8 271 -27 75 -92 169 -169
246 -93 92 -167 124 -286 124 -183 0 -423 -96 -633 -252 -197 -147 -432 -403
-564 -616 -162 -262 -255 -511 -297 -793 -10 -71 -12 -291 -2 -366 27 -215
132 -406 273 -499 54 -35 93 -54 156 -75 85 -29 133 -35 272 -34 64 0 117 -1
117 -3 0 -1 -22 -40 -49 -85 -26 -46 -59 -103 -73 -128 -14 -25 -44 -78 -68
-118 -43 -74 -46 -102 -11 -102 14 0 39 34 95 131 42 71 76 133 76 136 0 4 6
14 14 22 7 9 28 43 46 76 18 33 41 74 51 90 10 17 24 41 32 55 33 59 71 126
80 141 9 14 17 11 63 -27 89 -72 171 -124 277 -175 56 -27 105 -49 108 -49 3
0 -2 39 -12 88 -11 48 -21 101 -24 117 -29 163 -45 259 -50 304 -4 30 -8 62
-10 72 -2 10 -7 51 -10 91 -3 40 -8 88 -11 106 -6 37 -8 34 211 412 78 135
153 265 167 290 89 158 291 507 298 514 5 5 39 -7 82 -29 70 -37 337 -191 387
-223 l24 -16 -8 99 c-4 55 -8 106 -10 115 -1 8 -6 42 -9 75 -4 33 -9 71 -11
85 -3 14 -7 45 -10 70 -3 25 -13 83 -21 130 -9 47 -18 96 -20 110 -3 14 -12
59 -21 100 -8 41 -17 84 -19 95 -2 12 28 74 75 155 126 213 137 236 122 254
-16 19 -25 20 -39 4z m-879 -564 c27 -8 55 -78 50 -122 -5 -50 -35 -142 -93
-287 -104 -263 -104 -407 1 -515 l40 -41 -46 -75 c-25 -41 -45 -76 -45 -79 0
-2 -19 -36 -43 -77 -24 -40 -55 -93 -69 -118 -14 -25 -49 -87 -79 -138 -30
-51 -59 -100 -64 -110 -6 -9 -31 -53 -56 -97 -157 -276 -284 -492 -296 -507
-21 -23 -139 -80 -198 -95 -11 -2 -54 -7 -95 -10 -240 -16 -373 184 -365 549
6 247 66 482 190 733 172 351 473 684 791 875 168 102 292 139 377 114z"/>
<path d="M1745 4149 c-33 -3 -89 -9 -125 -13 -36 -4 -72 -9 -80 -11 -8 -3 -35
-7 -60 -10 -69 -9 -109 -14 -149 -19 -36 -5 -173 -23 -241 -31 -19 -2 -53 -7
-75 -9 -83 -11 -204 -17 -323 -17 -138 1 -140 -1 -123 -67 16 -57 81 -126 154
-162 120 -58 262 -72 462 -45 50 7 91 12 92 11 1 -1 -21 -37 -49 -81 -327
-512 -725 -1296 -849 -1673 -29 -85 -33 -110 -33 -207 0 -120 13 -161 69 -217
34 -34 54 -26 80 34 169 389 364 779 620 1238 140 250 141 253 162 290 159
281 216 400 241 505 11 44 19 97 18 117 -1 40 0 40 79 52 50 7 119 18 139 22
19 3 61 8 196 23 41 5 129 7 195 6 71 -2 125 1 133 7 19 16 14 55 -13 97 -48
77 -104 117 -209 148 -55 16 -216 23 -311 12z"/>
<path d="M4195 4138 c3 -13 8 -36 12 -53 9 -39 8 -33 17 -88 4 -27 10 -59 12
-70 23 -106 57 -336 70 -467 22 -239 29 -387 29 -632 -1 -126 3 -228 7 -228 7
0 178 118 188 130 3 3 30 23 60 45 75 53 320 259 398 333 34 33 62 68 62 78 0
48 -91 285 -132 346 -10 14 -18 29 -18 32 0 10 -66 110 -110 165 -87 110 -190
203 -320 290 -83 55 -245 141 -268 141 -6 0 -9 -10 -7 -22z"/>
<path d="M5015 3029 c-33 -30 -103 -91 -155 -135 -52 -43 -97 -82 -100 -85
-20 -22 -342 -254 -460 -332 -133 -87 -450 -274 -492 -290 -29 -11 -21 -22 35
-47 28 -13 85 -39 126 -57 116 -53 342 -140 507 -196 136 -45 154 -49 180 -38
59 26 216 235 293 391 42 85 84 197 79 210 -1 3 4 15 10 26 6 12 14 36 17 55
3 19 8 41 10 49 2 8 7 35 10 60 3 25 8 59 11 75 9 42 7 271 -3 325 l-9 45 -59
-56z"/>
<path d="M3146 2408 c1 -18 5 -67 8 -108 4 -41 8 -86 10 -100 3 -14 10 -59 16
-100 7 -41 14 -84 16 -95 2 -11 7 -36 10 -55 5 -30 34 -193 48 -270 20 -108
29 -147 38 -157 11 -13 154 -48 243 -59 74 -9 222 -9 301 1 116 13 130 16 209
37 90 24 225 76 300 116 67 35 225 141 225 150 0 4 -53 25 -117 47 -438 147
-959 394 -1284 608 l-26 18 3 -33z"/>
</g>
</svg>
