<?xml version="1.0" standalone="no"?>
<!DOCTYPE svg PUBLIC "-//W3C//DTD SVG 20010904//EN"
 "http://www.w3.org/TR/2001/REC-SVG-20010904/DTD/svg10.dtd">
<svg version="1.0" xmlns="http://www.w3.org/2000/svg"
 width="260.000000pt" height="260.000000pt" viewBox="0 0 260.000000 260.000000"
 preserveAspectRatio="xMidYMid meet">
<metadata>
Created by potrace 1.11, written by Peter Selinger 2001-2013
</metadata>
<g transform="translate(0.000000,260.000000) scale(0.100000,-0.100000)"
fill="#000000" stroke="none">
<path d="M870 2489 c-14 -6 -36 -20 -48 -32 -44 -41 -55 -76 -58 -180 l-3 -97
-46 -57 c-94 -115 -131 -226 -122 -363 7 -111 28 -168 83 -226 l44 -48 0 -615
c0 -576 2 -619 19 -656 38 -84 107 -122 204 -112 59 5 113 45 145 107 21 42
22 55 22 282 l0 237 35 -15 c94 -39 204 6 250 103 12 26 21 33 33 28 67 -27
111 -26 173 6 47 23 85 69 100 119 11 37 12 38 61 38 61 1 85 8 126 39 47 35
75 96 74 163 0 30 6 93 14 140 26 144 29 179 28 370 0 219 -12 278 -79 386
-45 71 -45 72 -45 163 0 127 -32 193 -107 222 -33 12 -871 11 -903 -2z m895
-104 c20 -19 25 -35 25 -72 2 -164 4 -175 47 -238 68 -100 79 -150 80 -359 0
-100 -4 -206 -10 -236 l-10 -55 -47 140 c-26 77 -54 154 -63 171 -19 36 -69
81 -106 96 -41 16 -109 11 -155 -11 -39 -19 -96 -88 -96 -117 0 -8 -18 -10
-63 -7 -48 4 -71 1 -96 -12 l-34 -17 -96 95 c-137 136 -194 170 -229 135 -23
-23 -12 -47 36 -79 127 -87 383 -396 412 -498 10 -36 -12 -89 -42 -100 -52
-19 -99 7 -333 182 -213 161 -260 201 -280 244 -22 47 -30 166 -15 236 13 64
69 162 124 217 l38 38 0 104 c0 103 12 150 40 161 7 3 201 6 431 6 l418 1 24
-25z m-80 -658 c0 -1 6 -9 13 -18 18 -24 172 -476 172 -505 0 -89 -108 -138
-169 -76 -18 17 -40 66 -65 137 -20 61 -57 167 -82 236 -49 140 -52 163 -27
199 33 48 74 63 122 43 19 -7 35 -15 36 -16z m-290 -125 c35 -22 43 -36 84
-152 74 -208 133 -398 134 -432 3 -96 -137 -134 -185 -50 -8 15 -25 55 -38 89
l-22 62 29 38 c57 72 68 161 30 238 -23 47 -91 150 -120 182 -16 18 -17 23 -6
27 8 2 21 7 29 9 26 9 34 7 65 -11z m-375 -835 c0 -448 -2 -502 -17 -527 -41
-70 -152 -64 -182 9 -10 22 -13 169 -12 583 0 304 0 561 0 571 1 13 27 -2 106
-60 l104 -78 1 -498z m211 373 c30 -8 40 -18 54 -53 9 -23 19 -67 22 -97 10
-121 8 -137 -26 -171 -34 -33 -83 -39 -130 -14 -51 26 -54 53 -42 372 l1 22
43 -25 c23 -13 58 -29 78 -34z"/>
</g>
</svg>
