<?xml version="1.0" standalone="no"?>
<!DOCTYPE svg PUBLIC "-//W3C//DTD SVG 20010904//EN"
 "http://www.w3.org/TR/2001/REC-SVG-20010904/DTD/svg10.dtd">
<svg version="1.0" xmlns="http://www.w3.org/2000/svg"
 width="392.000000pt" height="392.000000pt" viewBox="0 0 392.000000 392.000000"
 preserveAspectRatio="xMidYMid meet">
<metadata>
Created by potrace 1.11, written by Peter Selinger 2001-2013
</metadata>
<g transform="translate(0.000000,392.000000) scale(0.100000,-0.100000)"
fill="#000000" stroke="none">
<path d="M1927 3174 c-1 -1 -33 -4 -72 -7 -366 -29 -717 -241 -918 -555 -90
-141 -155 -322 -182 -502 -5 -41 -6 -253 -1 -290 2 -14 7 -45 11 -69 24 -157
122 -380 228 -521 157 -207 385 -365 628 -434 77 -22 107 -28 199 -42 43 -6
222 -6 282 0 166 18 368 93 523 194 275 181 466 468 529 797 16 82 16 360 1
435 -61 300 -235 576 -475 756 -165 123 -399 213 -595 229 -102 9 -155 12
-158 9z"/>
<path d="M181 3009 c-54 -11 -98 -46 -127 -99 -17 -33 -18 -83 -18 -955 0
-871 1 -922 18 -955 23 -43 42 -62 87 -86 32 -17 73 -18 572 -19 295 0 537 1
537 2 0 1 -17 12 -37 25 l-38 23 -496 0 -495 0 -37 25 c-20 14 -42 39 -49 55
-10 23 -13 229 -14 925 -1 848 0 897 17 935 10 23 33 49 51 60 32 19 54 20
523 20 l491 1 32 22 c18 13 32 24 32 25 0 5 -1023 1 -1049 -4z"/>
<path d="M2717 2990 l27 -24 496 -1 496 0 36 -25 c67 -46 64 8 64 -991 l-1
-905 -24 -36 c-45 -65 -18 -62 -566 -63 l-501 -1 -37 -23 c-20 -12 -37 -24
-37 -25 0 -1 242 -1 538 0 353 1 546 5 563 12 36 14 73 50 95 92 17 33 18 81
18 955 0 871 -1 922 -18 955 -21 39 -28 47 -76 80 l-34 25 -533 0 -533 0 27
-25z"/>
</g>
</svg>
