<svg xmlns="http://www.w3.org/2000/svg" xmlns:xlink="http://www.w3.org/1999/xlink" viewBox="0 0 791.96 132.37"><defs><style>.cls-1{fill:none;}.cls-2{clip-path:url(#clip-path);}.cls-3{fill:#fff;}.cls-4{clip-path:url(#clip-path-2);}</style><clipPath id="clip-path" transform="translate(-11.99)"><polygon class="cls-1" points="812.49 5.87 357.42 5.39 312.4 122.94 812.49 123.33 812.49 5.87"/></clipPath><clipPath id="clip-path-2" transform="translate(-11.99)"><polygon class="cls-1" points="0 5.87 357.64 5.87 312.4 123.15 0 123.54 0 5.87"/></clipPath></defs><g id="Layer_2" data-name="Layer 2"><g id="thischristography-logo-white"><g id="TOGRAPHY"><g class="cls-2"><path id="Y" class="cls-3" d="M779.21,100.87h-1.67a1,1,0,0,1-1-1V76.79L752.91,31.7a1,1,0,0,1,0-1,1,1,0,0,1,.84-.47h1.92a1,1,0,0,1,.87.52l21.8,41.59,21.81-41.59a1,1,0,0,1,.86-.52H803a1,1,0,0,1,.87,1.43L780.19,76.79v23.1A1,1,0,0,1,779.21,100.87Z" transform="translate(-11.99)"/><path id="H" class="cls-3" d="M741.87,100.87H740.2a1,1,0,0,1-1-1V66.94H698.67v33a1,1,0,0,1-1,1H696a1,1,0,0,1-1-1V31.25a1,1,0,0,1,1-1h1.67a1,1,0,0,1,1,1V63.12h40.55V31.25a1,1,0,0,1,1-1h1.67a1,1,0,0,1,1,1V99.89A1,1,0,0,1,741.87,100.87Z" transform="translate(-11.99)"/><path id="P" class="cls-3" d="M639.35,100.87h-1.67a1,1,0,0,1-1-1V31.25a1,1,0,0,1,1-1h19.75c15,0,23.91,8.79,23.91,23.53s-8.94,23.54-23.91,23.54h-17.1V99.89A1,1,0,0,1,639.35,100.87Zm1-27.36H657.6c13,0,20.11-7,20.11-19.71s-7.14-19.71-20.11-19.71H640.33Z" transform="translate(-11.99)"/><path id="A" class="cls-3" d="M625.85,100.87h-1.92a1,1,0,0,1-.91-.62l-7.93-20.07H580.75l-7.92,20.07a1,1,0,0,1-.92.62H570a1,1,0,0,1-.81-.43,1,1,0,0,1-.11-.91l27.09-68.64a1,1,0,0,1,.92-.62h1.67a1,1,0,0,1,.91.62l27.09,68.64a1,1,0,0,1-.91,1.34ZM582.27,76.36h31.3L597.92,36.57Z" transform="translate(-11.99)"/><path id="R" class="cls-3" d="M564.17,100.87h-2.09a1,1,0,0,1-.83-.47L546.77,76.77a32,32,0,0,1-6.36.57h-17.1V99.89a1,1,0,0,1-1,1h-1.66a1,1,0,0,1-1-1V31.25a1,1,0,0,1,1-1h19.75c15,0,23.91,8.79,23.91,23.53,0,10.81-5,18.73-13.84,21.92L565,99.38a1,1,0,0,1,0,1A1,1,0,0,1,564.17,100.87ZM523.31,73.51h17.27c13,0,20.11-7,20.11-19.71s-7.14-19.71-20.11-19.71H523.31Z" transform="translate(-11.99)"/><path id="G" class="cls-3" d="M480.15,101.17c-17.76,0-31.15-15.31-31.15-35.6S462.39,30,480.15,30C488.62,30,496,33.19,501,39a1,1,0,0,1,0,1.22l-1,1.37a.94.94,0,0,1-.74.4,1,1,0,0,1-.78-.32c-4.81-5.4-10.64-7.91-18.36-7.91-15.69,0-27.52,13.66-27.52,31.77s11.83,31.77,27.52,31.77c7.36,0,13.09-2.34,17.53-7.14v-24a1,1,0,0,1,1-1h1.58a1,1,0,0,1,1,1V91.36A1,1,0,0,1,501,92C496,97.91,488.56,101.17,480.15,101.17Z" transform="translate(-11.99)"/><path id="O" class="cls-3" d="M410.22,101.17c-17.61,0-30.9-15.31-30.9-35.6S392.61,30,410.22,30s30.91,15.3,30.91,35.6S427.84,101.17,410.22,101.17Zm0-67.37C394.67,33.8,383,47.46,383,65.57s11.72,31.77,27.27,31.77S437.5,83.68,437.5,65.57,425.77,33.8,410.22,33.8Z" transform="translate(-11.99)"/><path id="T" class="cls-3" d="M354.21,100.87h-1.66a1,1,0,0,1-1-1V34.09h-20.7a1,1,0,0,1-1-1V31.25a1,1,0,0,1,1-1h45a1,1,0,0,1,1,1v1.86a1,1,0,0,1-1,1h-20.7v65.8A1,1,0,0,1,354.21,100.87Z" transform="translate(-11.99)"/></g></g><g id="ThisChris"><g class="cls-4"><g id="Chris"><g id="hris"><path class="cls-3" d="M340.47,80.26c-.22-.59-.54-.88-1-.88h-.14c-.37,0-.68.29-.93.89q-5.34,13.56-14.3,17.45,4.38-3.52,4.8-13.18.1-3.77-.42-11.68-.75-8.66-.75-13c0-1.84,0-3.6.11-5.27q2.65-5.4,2.66-6.4c0-1.42-.64-2.14-1.92-2.14s-2.81.84-4.37,2.51q-3.19,3.39-3.84,9.67a241.92,241.92,0,0,1-12.27,21.59c-.07-.92-.14-1.89-.21-2.89-.15-1.34-.5-2-1.07-2a2.1,2.1,0,0,0-1.17.63q-3.1,3-3.1,9.29a22.19,22.19,0,0,0,.26,3.21,39.64,39.64,0,0,1-3.24,5q-4.17,5.24-7.58,5.48h-.17c-1.74,0-2.6-1.29-2.6-3.88a25.61,25.61,0,0,1,1.7-8q5.55-13.27,9-20.28a21,21,0,0,0,1.6-7.76,14.51,14.51,0,0,0-.54-3.76c-.5-1.83-1.14-2.75-1.92-2.75-.5,0-1,.46-1.6,1.38a146,146,0,0,0-7.36,14.31,128.87,128.87,0,0,0-6.29,16.19,32.55,32.55,0,0,0-1.22,6.62,40.28,40.28,0,0,1-2.52,4c-2.35,3.18-4.51,4.77-6.46,4.77h-.15c-2.28-.09-3.41-2.14-3.41-6.15a21.51,21.51,0,0,1,.74-5.4q2-7.91,11.74-20.84a7.2,7.2,0,0,0,1.38-4.39A13.23,13.23,0,0,0,281,54.65a1.3,1.3,0,0,0-1.07-.57,3.15,3.15,0,0,0-1.81.83q-6.18,5-11,5.77a37.7,37.7,0,0,0,2.35-11.3c0-2.51-.67-3.77-2-3.77h-.13c-1.57.08-3.49,1.8-5.76,5.14q-3.42,5.4-3.42,9.79a5.42,5.42,0,0,0,2,4.65q-11.52,19.32-13.6,24a27.24,27.24,0,0,0-1.47,4.18c-2.51,3.36-4.75,5.1-6.69,5.17l-.32,0c-2.14,0-3.2-1.68-3.2-5a22.75,22.75,0,0,1,1.7-7.9q6.19-13.93,9.92-21.22a11.85,11.85,0,0,0,1.07-4.89,9.87,9.87,0,0,0-1.6-5.65,5.27,5.27,0,0,0-3.63-2.63,3.69,3.69,0,0,0-.58,0q-4.51,0-12.22,8.82,11.73-21.58,12.8-23.59,3.74-7.29,3.74-13.31c0-3.76-.64-5.65-1.92-5.65-.43,0-.89.34-1.39,1q-6.61,9.78-19.1,34.76-12.69,25.37-15.47,34.65A27.77,27.77,0,0,0,207,95.45a9.3,9.3,0,0,0,1.71,5.77c.34.43.64.65.91.65s.66-.39.9-1.15a173.45,173.45,0,0,1,10.35-23.85,51.4,51.4,0,0,1,11.42-14.56q5.57-5,7.38-5a.81.81,0,0,1,.51.15.53.53,0,0,1,.22.5q0,1.13-4.48,9.79a101.17,101.17,0,0,0-6.83,16.06,30.48,30.48,0,0,0-1.39,8.41q0,10.17,9.39,10.17a12.92,12.92,0,0,0,7.57-2.75,10.48,10.48,0,0,0,2.24,5.51c.39.46.72.68,1,.68s.65-.43.82-1.31q1.28-7,7.36-20l9-18.08q6.3,0,12.48-4.77-13.75,18.58-13.76,29.37a13.32,13.32,0,0,0,2.4,8.22,8.53,8.53,0,0,0,6.67,3.46h.56a11.87,11.87,0,0,0,7.81-3.34,20.28,20.28,0,0,0,2.11-2.14q1.77,5,7.65,5A14.31,14.31,0,0,0,300,98.58a21.88,21.88,0,0,0,4.56-5.07q4.41,8.86,14.43,8.86l1.07,0q12.69-.63,18.88-13.81Q341.54,83,340.47,80.26ZM316.25,98q-4.69,0-7.15-11.42A230.68,230.68,0,0,0,320.19,66.2q.65,13.93.65,16.32Q320.84,98,316.25,98Z" transform="translate(-11.99)"/><path class="cls-3" d="M305.47,52.14q3.63,0,3.63-5.77a9.2,9.2,0,0,0-.75-3.64c-1.06-2.51-2.49-3.76-4.26-3.76a2.87,2.87,0,0,0-2.56,1.94,8.87,8.87,0,0,0-1,4,9.73,9.73,0,0,0,1.06,4.4Q303.13,52.14,305.47,52.14Z" transform="translate(-11.99)"/></g><path id="C" class="cls-3" d="M204.34,21a20.42,20.42,0,0,0-8.22,2.13q-10.56,4.77-20,19.46Q165.3,59.68,165.61,77.87a32,32,0,0,0,2.88,13.31A17.38,17.38,0,0,0,174.84,99a16.38,16.38,0,0,0,8.91,2.45,20.15,20.15,0,0,0,13.33-5.15A29,29,0,0,0,203.16,89a20.15,20.15,0,0,0,3.2-10.29q0-5.27-1.81-5.27c-.43,0-.78.34-1.07,1q-4.57,10.67-10.29,16.75t-10.72,6.09a7.12,7.12,0,0,1-5.23-2.26q-3.94-3.76-4-14.43a60.12,60.12,0,0,1,7-27.49A64.68,64.68,0,0,1,194.84,34.2q7.68-6.9,12.38-6.91,2.67,0,2.67,3.39,0,2.52-2.25,9t-2.24,9.72q0,5,3.21,7.53a2,2,0,0,0,1.15.49c.53,0,.93-.42,1.19-1.24q3-9.42,4.27-12.43a18.51,18.51,0,0,0,1.49-7,15.42,15.42,0,0,0-.53-4,21.74,21.74,0,0,0-5.65-9.16A8.28,8.28,0,0,0,204.34,21Z" transform="translate(-11.99)"/></g><g id="This"><path class="cls-3" d="M145,80.26c-.21-.59-.53-.88-1-.88h-.13c-.37,0-.68.29-.93.89q-5.34,13.56-14.3,17.45,4.38-3.52,4.8-13.18.1-3.77-.43-11.68-.73-8.66-.74-13c0-1.84,0-3.6.1-5.27q2.67-5.4,2.67-6.4c0-1.42-.64-2.14-1.92-2.14s-2.81.84-4.37,2.51q-3.21,3.39-3.84,9.67A244.47,244.47,0,0,1,112.7,79.76c-.07-.92-.15-1.89-.22-2.89-.14-1.34-.49-2-1.06-2a2.15,2.15,0,0,0-1.18.63q-3.09,3-3.09,9.29a20.86,20.86,0,0,0,.26,3.21,40.83,40.83,0,0,1-3.25,5q-4.16,5.24-7.57,5.48h-.17c-1.74,0-2.6-1.29-2.6-3.88a25.33,25.33,0,0,1,1.7-8q5.55-13.27,9-20.28a20.81,20.81,0,0,0,1.6-7.76,14.48,14.48,0,0,0-.53-3.76c-.5-1.83-1.14-2.75-1.92-2.75-.5,0-1,.46-1.6,1.38a146,146,0,0,0-7.36,14.31,129.15,129.15,0,0,0-6.3,16.19,38.4,38.4,0,0,0-.93,4.15,42,42,0,0,1-3.12,4.76q-4,5.66-7.15,5.77l-.31,0q-3.21,0-3.21-5a22.79,22.79,0,0,1,1.71-7.9q6.18-13.93,9.92-21.22a11.85,11.85,0,0,0,1.07-4.89,10,10,0,0,0-1.6-5.65,5.27,5.27,0,0,0-3.63-2.63,3.81,3.81,0,0,0-.59,0q-4.52,0-12.21,8.82,11.73-21.58,12.8-23.59,3.73-7.29,3.73-13.31c0-3.76-.64-5.65-1.92-5.65-.42,0-.89.34-1.38,1q-6.61,9.78-19.1,34.76Q49.74,78.64,47,87.92a27.77,27.77,0,0,0-1.28,7.53,9.3,9.3,0,0,0,1.71,5.77c.33.43.64.65.9.65s.67-.39.91-1.15A173.45,173.45,0,0,1,59.57,76.87,51.36,51.36,0,0,1,71,62.31q5.56-5,7.39-5a.85.85,0,0,1,.51.15.53.53,0,0,1,.21.5q0,1.13-4.48,9.79a102.13,102.13,0,0,0-6.83,16.06,30.81,30.81,0,0,0-1.38,8.41q0,10.17,9.39,10.17,4.58,0,9.17-4a26.47,26.47,0,0,0,2.48-2.6q1.35,6.48,8.08,6.49a14.33,14.33,0,0,0,9.07-3.64,22,22,0,0,0,4.55-5.06c3,5.9,7.75,8.85,14.44,8.85l1.07,0q12.69-.63,18.88-13.81C145.24,84.86,145.73,82.1,145,80.26ZM120.81,98q-4.71,0-7.15-11.42Q121,74.24,124.75,66.2q.65,13.93.64,16.32Q125.39,98,120.81,98Z" transform="translate(-11.99)"/><path class="cls-3" d="M110,52.14q3.63,0,3.63-5.77a9.2,9.2,0,0,0-.75-3.64c-1.06-2.51-2.49-3.76-4.27-3.76a2.88,2.88,0,0,0-2.56,1.94,8.87,8.87,0,0,0-1,4,9.74,9.74,0,0,0,1.07,4.4Q107.69,52.14,110,52.14Z" transform="translate(-11.99)"/><path id="T-2" data-name="T" class="cls-3" d="M52,23Q49.36,23,37,25a106.27,106.27,0,0,1-15.49,1.61c-.91,0-1.72,0-2.43-.1l-.31,0a.9.9,0,0,0-.76.34,1.61,1.61,0,0,0-.11,1.32q1.81,7.19,10.94,7.19l1.23,0a42.29,42.29,0,0,0,6.51-.88A318.8,318.8,0,0,0,21.8,64.82q-7.36,17-9.17,24.85A19.24,19.24,0,0,0,12,94.44q0,4.4,2,6.65a1.24,1.24,0,0,0,.85.55c.33,0,.62-.31.86-.92Q21,86.16,28.31,70.09,34,58.3,39.51,46.5,43.25,38.58,43,33.19a84.52,84.52,0,0,1,15.15-2c1.07,0,2.06.05,3,.13l.3,0a1,1,0,0,0,1-.52,1.57,1.57,0,0,0,0-1.38q-2-6.15-10.14-6.4Z" transform="translate(-11.99)"/></g></g></g><g id="Slash"><path class="cls-3" d="M309.22,132.37a.87.87,0,0,1-.35-.07,1,1,0,0,1-.56-1.27L358.61.63a1,1,0,0,1,1.27-.57,1,1,0,0,1,.56,1.27l-50.3,130.41A1,1,0,0,1,309.22,132.37Z" transform="translate(-11.99)"/><path class="cls-3" d="M309.22,131.39,359.53,1Z" transform="translate(-11.99)"/></g></g></g></svg>